# xmcd CD database file
#
# Track frame offsets:
#	150
#	18602
#	32642
#	49205
#	69657
#	83502
#	104707
#	119187
#	136170
#	150727
#	168707
#	186682
#
# Disc length: 2744 seconds
#
# Revision: 0
# Processed by: cddbd v1.5PL3 Copyright (c) Steve Scherf et al.
# Submitted via: CDex 1.50beta8
#
DISCID=b20ab60c
DTITLE=子供ばんど - GIANT HOP STEP JUMP
DYEAR=1900
DGENRE=Rock
TTITLE0=ブタ箱ブギウギ
TTITLE1=Rock and Roll ハリケーン
TTITLE2=お前の事ばかり
TTITLE3=ジャイアントマンのテーマ
TTITLE4=TOKYOダイナマイト
TTITLE5=から回り
TTITLE6=ママは最高
TTITLE7=ツイストアンドシャウト
TTITLE8=ロックンロール・フーチークー
TTITLE9=ロンリー・ナイト
TTITLE10=朝
TTITLE11=時は流れて
EXTD=
EXTT0=
EXTT1=
EXTT2=
EXTT3=
EXTT4=
EXTT5=
EXTT6=
EXTT7=
EXTT8=
EXTT9=
EXTT10=
EXTT11=
PLAYORDER=
